<svg xmlns="http://www.w3.org/2000/svg" viewBox="0 0 400 300">
  <defs>
    <linearGradient id="eG" x1="0%" y1="0%" x2="100%" y2="100%">
      <stop offset="0%" stop-color="#F43F5E"/>
      <stop offset="100%" stop-color="#FDA4AF"/>
    </linearGradient>
  </defs>
  <g transform="translate(200,120)" fill="url(#eG)" opacity="0.3">
    <path d="M0 60 C-45 35 -90 10 -90 -20 C-90 -60 -60 -80 -35 -80 C-10 -80 0 -55 0 -40 C0 -55 10 -80 35 -80 C60 -80 90 -60 90 -20 C90 10 45 35 0 60Z"/>
  </g>
  <g transform="translate(200,220)" text-anchor="middle" font-family="sans-serif">
    <circle cx="0" cy="0" r="3" fill="#F43F5E" opacity="0.4"/>
    <circle cx="-30" cy="-8" r="2" fill="#F43F5E" opacity="0.2"/>
    <circle cx="35" cy="-12" r="2.5" fill="#F43F5E" opacity="0.25"/>
    <circle cx="-15" cy="-25" r="1.5" fill="#F43F5E" opacity="0.15"/>
    <circle cx="20" cy="-30" r="2" fill="#F43F5E" opacity="0.2"/>
  </g>
</svg>
