<svg xmlns="http://www.w3.org/2000/svg" viewBox="0 0 1200 800">
  <defs>
    <linearGradient id="heroBg" x1="0%" y1="0%" x2="100%" y2="100%">
      <stop offset="0%" stop-color="#F43F5E"/>
      <stop offset="50%" stop-color="#EC4899"/>
      <stop offset="100%" stop-color="#BE185D"/>
    </linearGradient>
    <linearGradient id="heartG" x1="0%" y1="0%" x2="100%" y2="100%">
      <stop offset="0%" stop-color="#FFF1F2"/>
      <stop offset="100%" stop-color="#FCE7F3"/>
    </linearGradient>
    <radialGradient id="glow" cx="50%" cy="40%" r="50%">
      <stop offset="0%" stop-color="rgba(255,255,255,0.15)"/>
      <stop offset="100%" stop-color="rgba(255,255,255,0)"/>
    </radialGradient>
  </defs>
  <rect width="1200" height="800" fill="url(#heroBg)"/>
  <circle cx="600" cy="350" r="300" fill="url(#glow)"/>
  <g transform="translate(600,320)" fill="url(#heartG)" opacity="0.9">
    <path d="M0 80 C-60 50 -120 20 -120 -20 C-120 -70 -80 -100 -50 -100 C-20 -100 0 -75 0 -55 C0 -75 20 -100 50 -100 C80 -100 120 -70 120 -20 C120 20 60 50 0 80Z"/>
  </g>
  <g transform="translate(600,520)" text-anchor="middle" font-family="Georgia, serif">
    <text x="0" y="0" font-size="42" fill="#FFF1F2" font-weight="bold" opacity="0.95">Nama Kamu</text>
    <text x="0" y="10" font-size="24" fill="#FCE7F3" opacity="0.8">&amp;</text>
    <text x="0" y="50" font-size="42" fill="#FFF1F2" font-weight="bold" opacity="0.95">Nama Pasangan</text>
  </g>
  <g transform="translate(600,620)" text-anchor="middle" font-family="sans-serif">
    <text x="0" y="0" font-size="18" fill="#FCE7F3" opacity="0.7">Tempat semua cerita kita tersimpan selamanya.</text>
  </g>
</svg>
